<?xml version="1.0" encoding="utf-8"?>
<!-- Generator: Adobe Illustrator 21.0.0, SVG Export Plug-In . SVG Version: 6.00 Build 0)  -->
<svg version="1.1" id="Layer_1" xmlns="http://www.w3.org/2000/svg" xmlns:xlink="http://www.w3.org/1999/xlink" x="0px" y="0px"
	 viewBox="0 0 146 24" style="enable-background:new 0 0 146 24;" xml:space="preserve">
<style type="text/css">
	.st0{fill:url(#XMLID_18_);}
	.st1{fill:url(#XMLID_19_);}
	.st2{fill:url(#XMLID_20_);}
	.st3{fill:url(#XMLID_21_);}
	.st4{fill:url(#XMLID_22_);}
	.st5{fill:url(#XMLID_23_);}
	.st6{fill:url(#XMLID_24_);}
	.st7{fill:url(#XMLID_25_);}
	.st8{fill:url(#XMLID_26_);}
	.st9{fill:url(#XMLID_27_);}
</style>
<g id="XMLID_10_">
	<g id="XMLID_14_">
		
			<linearGradient id="XMLID_18_" gradientUnits="userSpaceOnUse" x1="-302.8241" y1="17.7488" x2="-302.8241" y2="5.6945" gradientTransform="matrix(-1 0 0 1 -273 0)">
			<stop  offset="0" style="stop-color:#A70E13"/>
			<stop  offset="0.6582" style="stop-color:#F04E3E"/>
			<stop  offset="1" style="stop-color:#F68C59"/>
		</linearGradient>
		<polygon id="XMLID_16_" class="st0" points="31,7.5 31,16 28.6,17.7 28.6,14.2 28.6,6.6 28.6,5.7 		"/>
		
			<linearGradient id="XMLID_19_" gradientUnits="userSpaceOnUse" x1="-300.4785" y1="17.7488" x2="-300.4785" y2="5.6945" gradientTransform="matrix(-1 0 0 1 -273 0)">
			<stop  offset="0" style="stop-color:#5E0000"/>
			<stop  offset="1" style="stop-color:#CE181E"/>
		</linearGradient>
		<polygon id="XMLID_15_" class="st1" points="28.7,5.7 26.3,7.5 26.3,16 28.7,17.7 		"/>
	</g>
	<g id="XMLID_11_">
		
			<linearGradient id="XMLID_20_" gradientUnits="userSpaceOnUse" x1="-306.8232" y1="20.4667" x2="-306.8232" y2="3.1731" gradientTransform="matrix(-1 0 0 1 -273 0)">
			<stop  offset="0" style="stop-color:#A70E13"/>
			<stop  offset="0.6582" style="stop-color:#F04E3E"/>
			<stop  offset="1" style="stop-color:#F68C59"/>
		</linearGradient>
		<polygon id="XMLID_13_" class="st2" points="35,4.9 35,18.7 32.7,20.5 32.7,16.9 32.7,6.6 32.7,3.2 		"/>
		
			<linearGradient id="XMLID_21_" gradientUnits="userSpaceOnUse" x1="-304.4639" y1="20.4667" x2="-304.4639" y2="3.1731" gradientTransform="matrix(-1 0 0 1 -273 0)">
			<stop  offset="0" style="stop-color:#5E0000"/>
			<stop  offset="1" style="stop-color:#CE181E"/>
		</linearGradient>
		<polygon id="XMLID_12_" class="st3" points="32.7,3.2 30.3,4.9 30.3,18.7 32.7,20.5 		"/>
	</g>
	<g id="XMLID_1_">
		<linearGradient id="XMLID_22_" gradientUnits="userSpaceOnUse" x1="43.361" y1="17.7488" x2="43.361" y2="5.6945">
			<stop  offset="0" style="stop-color:#5E0000"/>
			<stop  offset="1" style="stop-color:#94070A"/>
		</linearGradient>
		<polygon id="XMLID_8_" class="st4" points="42.2,7.5 42.2,16 44.5,17.7 44.5,14.2 44.5,6.6 44.5,5.7 		"/>
		<linearGradient id="XMLID_23_" gradientUnits="userSpaceOnUse" x1="45.7001" y1="17.7488" x2="45.7001" y2="5.6945">
			<stop  offset="0" style="stop-color:#A70E13"/>
			<stop  offset="0.6582" style="stop-color:#F04E3E"/>
			<stop  offset="1" style="stop-color:#F68C59"/>
		</linearGradient>
		<polygon id="XMLID_7_" class="st5" points="44.5,5.7 46.9,7.5 46.9,16 44.5,17.7 		"/>
	</g>
	<g id="XMLID_6_">
		<linearGradient id="XMLID_24_" gradientUnits="userSpaceOnUse" x1="39.3786" y1="20.4667" x2="39.3786" y2="3.1731">
			<stop  offset="0" style="stop-color:#5E0000"/>
			<stop  offset="1" style="stop-color:#94070A"/>
		</linearGradient>
		<polygon id="XMLID_5_" class="st6" points="38.2,4.9 38.2,18.7 40.5,20.5 40.5,16.9 40.5,6.6 40.5,3.2 		"/>
		<linearGradient id="XMLID_25_" gradientUnits="userSpaceOnUse" x1="41.7212" y1="20.4667" x2="41.7212" y2="3.1731">
			<stop  offset="0" style="stop-color:#A70E13"/>
			<stop  offset="0.6582" style="stop-color:#F04E3E"/>
			<stop  offset="1" style="stop-color:#F68C59"/>
		</linearGradient>
		<polygon id="XMLID_3_" class="st7" points="40.5,3.2 42.9,4.9 42.9,18.7 40.5,20.5 		"/>
	</g>
	<g id="XMLID_9_">
		<linearGradient id="XMLID_26_" gradientUnits="userSpaceOnUse" x1="35.3794" y1="23.25" x2="35.3794" y2="0.75">
			<stop  offset="0" style="stop-color:#5E0000"/>
			<stop  offset="1" style="stop-color:#CE181E"/>
		</linearGradient>
		<polygon id="XMLID_2_" class="st8" points="34.2,2.5 34.2,21.5 36.6,23.3 36.6,19.7 36.6,9.3 36.6,0.8 		"/>
		<linearGradient id="XMLID_27_" gradientUnits="userSpaceOnUse" x1="37.7388" y1="23.25" x2="37.7388" y2="0.75">
			<stop  offset="0" style="stop-color:#A70E13"/>
			<stop  offset="0.6582" style="stop-color:#F04E3E"/>
			<stop  offset="1" style="stop-color:#F68C59"/>
		</linearGradient>
		<polygon id="XMLID_4_" class="st9" points="36.6,0.8 38.9,2.5 38.9,21.5 36.6,23.3 		"/>
	</g>
</g>
<g id="XMLID_57_">
	<path id="XMLID_58_" d="M59.6,9.8V8.5h3v1.4h-0.7v4.3h2.2l0.1-1h1.3v2.4h-5.7v-1.3h0.7V9.8H59.6z"/>
	<path id="XMLID_60_" d="M73.3,12c0,1.8-1.1,3.7-3.6,3.7c-2.6,0-3.6-1.8-3.6-3.6c0-2.4,1.7-3.7,3.7-3.7C72.2,8.3,73.3,10.2,73.3,12z
		 M69.7,9.7c-1.4,0-2.2,1-2.2,2.4c0,1.2,0.6,2.2,2.2,2.2c1.5,0,2.1-1.2,2.1-2.3C71.8,10.9,71.3,9.7,69.7,9.7z"/>
	<path id="XMLID_63_" d="M80.3,9c0,0.5,0,1.2,0,1.7h-1.3l-0.1-1c-0.4-0.1-0.8-0.1-1.1-0.1c-1.4,0-2.2,1.1-2.2,2.4
		c0,1.1,0.6,2.2,2.3,2.2c0.6,0,1-0.1,1.3-0.4v-1h-1.9v-1.2h3.2v2.8c-0.6,0.8-1.6,1.2-2.6,1.2c-2.7,0-3.7-1.7-3.7-3.6
		c0-1.9,1.2-3.8,3.7-3.8C78.7,8.3,79.5,8.5,80.3,9z"/>
	<path id="XMLID_65_" d="M88.6,12c0,1.8-1.1,3.7-3.6,3.7c-2.6,0-3.6-1.8-3.6-3.6c0-2.4,1.7-3.7,3.7-3.7C87.5,8.3,88.6,10.2,88.6,12z
		 M85,9.7c-1.4,0-2.2,1-2.2,2.4c0,1.2,0.6,2.2,2.2,2.2c1.5,0,2.1-1.2,2.1-2.3C87.1,10.9,86.6,9.7,85,9.7z"/>
	<path id="XMLID_68_" d="M92.8,15.5v-1.3h0.8V9.8h-1.1l-0.1,1h-1.3V8.5h6.3v2.3h-1.3l-0.1-1h-1v4.4H96v1.3H92.8z"/>
	<path id="XMLID_70_" d="M103,14.1l0.1-1h1.3v2.4h-6.1v-1.4h0.8V9.8h-0.7V8.5h5.8v2.4H103l-0.1-1h-2.3v1.4h2.1v1.3h-2.1v1.5H103z"/>
	<path id="XMLID_72_" d="M111.3,14.2h0.8v1.3h-2.5v-1.2l-1-1.3l-1,1.2l0.8,0v1.3h-3.3v-1.3h0.7l1.9-2.3L106,9.8h-0.7V8.5h2.4v1.2
		l1,1.2l0.9-1.1l-0.8,0V8.5h3.2v1.3h-0.7l-1.8,2.1L111.3,14.2z"/>
	<path id="XMLID_74_" d="M114.2,15.5v-1.3h0.8V9.8H114l-0.1,1h-1.3V8.5h6.3v2.3h-1.3l-0.1-1h-1v4.4h0.8v1.3H114.2z"/>
</g>
</svg>
