<svg id="Layer_1" data-name="Layer 1" xmlns="http://www.w3.org/2000/svg" xmlns:xlink="http://www.w3.org/1999/xlink" viewBox="0 0 250 76.22"><defs><style>.cls-1{fill:#12222d;}.cls-2{fill:#e81b3d;}.cls-3{fill:url(#linear-gradient);}</style><linearGradient id="linear-gradient" x1="130.83" y1="5.35" x2="21.89" y2="82.52" gradientUnits="userSpaceOnUse"><stop offset="0" stop-color="#9e2064"/><stop offset="1" stop-color="#f15b2b"/></linearGradient></defs><title>logo2</title><path class="cls-1" d="M103.32,54.92h1.74l3.66,20.17,6.61-10.73-1.74-9.28h1.55l1.4,8,4.81-8h1.55l-5.65,9.28,2,10.73,12.22-20.17h1.74l-13.62,22h-1.43L116,65.62l-7,11.32h-1.43Z" transform="translate(0 -11.89)"/><path class="cls-1" d="M136.3,77.25a5.92,5.92,0,0,1-2.59-.54,5.75,5.75,0,0,1-1.92-1.47,6.33,6.33,0,0,1-1.19-2.17,8.48,8.48,0,0,1-.4-2.64,9.63,9.63,0,0,1,.73-3.68A10.19,10.19,0,0,1,136,61.37a8.7,8.7,0,0,1,3.8-.84,6.25,6.25,0,0,1,1.86.28,5,5,0,0,1,1.6.82A4.06,4.06,0,0,1,144.38,63a4,4,0,0,1,.42,1.86q0,4.65-8.44,4.65l-2.09,0q-1.1,0-2.44-.12c0,.17,0,.34,0,.53s0,.36,0,.53a7.81,7.81,0,0,0,.29,2.17,5.09,5.09,0,0,0,.9,1.78,4.38,4.38,0,0,0,1.52,1.21,4.76,4.76,0,0,0,2.13.45,5.86,5.86,0,0,0,1.6-.23,7.17,7.17,0,0,0,1.57-.65,6.92,6.92,0,0,0,1.38-1,6.11,6.11,0,0,0,1.07-1.35l1.3.4a7.8,7.8,0,0,1-1.35,1.67,9.2,9.2,0,0,1-1.74,1.29,8.71,8.71,0,0,1-2,.84A7.93,7.93,0,0,1,136.3,77.25Zm3.32-15.45a6.55,6.55,0,0,0-2.68.54,8,8,0,0,0-2.19,1.43,9,9,0,0,0-1.64,2,9.81,9.81,0,0,0-1,2.36q1.3.09,2.34.12t2,0a16.86,16.86,0,0,0,3.24-.26,7.05,7.05,0,0,0,2.13-.73,3,3,0,0,0,1.16-1.1,2.84,2.84,0,0,0,.36-1.41,2.69,2.69,0,0,0-.33-1.35,3,3,0,0,0-.84-.95A3.42,3.42,0,0,0,141,62,5.63,5.63,0,0,0,139.62,61.8Z" transform="translate(0 -11.89)"/><path class="cls-1" d="M153.36,77.25a5.16,5.16,0,0,1-3.29-1,5.69,5.69,0,0,1-1.86-2.51l-.68,3.23h-1.4l4.81-22.65h1.55l-2.14,10a14,14,0,0,1,3.15-2.73,6.66,6.66,0,0,1,3.58-1.05,4.87,4.87,0,0,1,2.42.57,5.47,5.47,0,0,1,1.72,1.5,6.47,6.47,0,0,1,1,2.12,8.83,8.83,0,0,1,.34,2.44,9.52,9.52,0,0,1-.79,3.82,11.19,11.19,0,0,1-2.09,3.23,10.25,10.25,0,0,1-3,2.22A7.58,7.58,0,0,1,153.36,77.25Zm0-1.4a6.11,6.11,0,0,0,2.84-.71,8.33,8.33,0,0,0,2.44-1.91,9.76,9.76,0,0,0,1.69-2.71,8,8,0,0,0,.64-3.13,7.16,7.16,0,0,0-.29-2,5.29,5.29,0,0,0-.88-1.75,4.46,4.46,0,0,0-1.43-1.21,4.07,4.07,0,0,0-2-.45,5,5,0,0,0-1.81.34,8.06,8.06,0,0,0-1.69.9,10.55,10.55,0,0,0-1.54,1.3A18.46,18.46,0,0,0,150,66.05l-1.24,6a4,4,0,0,0,.5,1.55,4.32,4.32,0,0,0,1,1.23,4.61,4.61,0,0,0,1.41.79A5,5,0,0,0,153.36,75.86Z" transform="translate(0 -11.89)"/><path class="cls-2" d="M173.09,77.13a6.62,6.62,0,0,1-3.24-.78,7.42,7.42,0,0,1-2.39-2.08,9.59,9.59,0,0,1-1.49-3,11.72,11.72,0,0,1-.51-3.44,12,12,0,0,1,.95-4.58,14.71,14.71,0,0,1,2.62-4.2A13.7,13.7,0,0,1,173,56a10.66,10.66,0,0,1,5-1.19,8.25,8.25,0,0,1,2.51.36,6.46,6.46,0,0,1,2,1,5.74,5.74,0,0,1,1.4,1.52,6.32,6.32,0,0,1,.81,1.94l-1.46.74A5,5,0,0,0,181,57.16a5.52,5.52,0,0,0-1.64-.7,7.47,7.47,0,0,0-1.78-.22,8.76,8.76,0,0,0-2.9.48A9.91,9.91,0,0,0,172.12,58,11.49,11.49,0,0,0,170,60a12.85,12.85,0,0,0-2.61,5.06,10.71,10.71,0,0,0-.36,2.68,10.05,10.05,0,0,0,.45,3,8,8,0,0,0,1.29,2.51,6.24,6.24,0,0,0,2,1.72,5.62,5.62,0,0,0,2.68.64,8.67,8.67,0,0,0,2-.25,9,9,0,0,0,2.08-.78,10,10,0,0,0,2-1.35,10.43,10.43,0,0,0,1.72-1.94l1.24.65a10.52,10.52,0,0,1-1.91,2.2,11.72,11.72,0,0,1-2.37,1.61,12,12,0,0,1-2.59,1A10.54,10.54,0,0,1,173.09,77.13Z" transform="translate(0 -11.89)"/><path class="cls-2" d="M189.57,54.3h1.55l-2.2,10.36a10.38,10.38,0,0,1,3.23-3A7.44,7.44,0,0,1,196,60.53a3.38,3.38,0,0,1,2.82,1.1,4.88,4.88,0,0,1,.87,3.09,13.62,13.62,0,0,1-.08,1.4,12.81,12.81,0,0,1-.26,1.55l-2,9.28H195.8l1.89-9a12.58,12.58,0,0,0,.31-2.57Q198,62,195.18,62a5.34,5.34,0,0,0-1.91.37,7.84,7.84,0,0,0-1.89,1.05,10.24,10.24,0,0,0-1.69,1.6,8.89,8.89,0,0,0-1.27,2l-2.11,10h-1.55Z" transform="translate(0 -11.89)"/><path class="cls-2" d="M208.46,77.25a5.92,5.92,0,0,1-2.59-.54,5.75,5.75,0,0,1-1.92-1.47,6.33,6.33,0,0,1-1.19-2.17,8.48,8.48,0,0,1-.4-2.64,9.63,9.63,0,0,1,.73-3.68,10.19,10.19,0,0,1,5.09-5.38,8.7,8.7,0,0,1,3.8-.84,6.25,6.25,0,0,1,1.86.28,5,5,0,0,1,1.6.82A4.06,4.06,0,0,1,216.54,63a4,4,0,0,1,.42,1.86q0,4.65-8.44,4.65l-2.09,0q-1.1,0-2.44-.12c0,.17,0,.34,0,.53s0,.36,0,.53a7.8,7.8,0,0,0,.29,2.17,5.09,5.09,0,0,0,.9,1.78,4.37,4.37,0,0,0,1.52,1.21,4.76,4.76,0,0,0,2.12.45,5.86,5.86,0,0,0,1.6-.23,7.17,7.17,0,0,0,1.57-.65,6.92,6.92,0,0,0,1.38-1,6.11,6.11,0,0,0,1.07-1.35l1.3.4a7.8,7.8,0,0,1-1.35,1.67,9.2,9.2,0,0,1-1.74,1.29,8.71,8.71,0,0,1-2,.84A7.93,7.93,0,0,1,208.46,77.25Zm3.32-15.45a6.55,6.55,0,0,0-2.68.54,8,8,0,0,0-2.19,1.43,9,9,0,0,0-1.64,2,9.81,9.81,0,0,0-1,2.36q1.3.09,2.34.12t2,0a16.86,16.86,0,0,0,3.24-.26,7.05,7.05,0,0,0,2.13-.73,3,3,0,0,0,1.16-1.1,2.84,2.84,0,0,0,.36-1.41,2.69,2.69,0,0,0-.33-1.35,3,3,0,0,0-.84-.95,3.41,3.41,0,0,0-1.19-.54A5.63,5.63,0,0,0,211.78,61.8Z" transform="translate(0 -11.89)"/><path class="cls-2" d="M224.81,77.25a5.82,5.82,0,0,1-2.51-.53,5.63,5.63,0,0,1-1.91-1.46,6.55,6.55,0,0,1-1.21-2.17,8.29,8.29,0,0,1-.42-2.67,9.35,9.35,0,0,1,.78-3.77,10.53,10.53,0,0,1,2.09-3.15,10.23,10.23,0,0,1,3-2.17,8.49,8.49,0,0,1,3.65-.81,5.83,5.83,0,0,1,3.49,1,4.64,4.64,0,0,1,1.81,2.76l-1.64.5a3.68,3.68,0,0,0-1.46-2.09,4.38,4.38,0,0,0-2.58-.76,6.36,6.36,0,0,0-2.82.67,8.2,8.2,0,0,0-2.42,1.8A9.2,9.2,0,0,0,221,67a7.92,7.92,0,0,0-.65,3.18,7.05,7.05,0,0,0,.34,2.22,5.72,5.72,0,0,0,.95,1.8,4.34,4.34,0,0,0,1.47,1.19,4.16,4.16,0,0,0,1.89.43,5.75,5.75,0,0,0,1.64-.25,8.18,8.18,0,0,0,1.58-.65,6.2,6.2,0,0,0,1.32-.95,4.39,4.39,0,0,0,.88-1.13l1.43.43a6.64,6.64,0,0,1-1.23,1.57,8.47,8.47,0,0,1-1.69,1.26,8.74,8.74,0,0,1-2,.82A8,8,0,0,1,224.81,77.25Z" transform="translate(0 -11.89)"/><path class="cls-2" d="M239.3,54.3h1.55l-2.42,11.45a16.91,16.91,0,0,1,3.77-3.85,7.13,7.13,0,0,1,4.2-1.43,3.76,3.76,0,0,1,2.68.87,3.14,3.14,0,0,1,.92,2.39,4.93,4.93,0,0,1-1.63,3.63,10.38,10.38,0,0,1-4.61,2.39l3.66,7.2h-1.71L241.87,69a11.67,11.67,0,0,0,4.95-2,3.9,3.9,0,0,0,1.69-3,2,2,0,0,0-.65-1.63,2.78,2.78,0,0,0-1.83-.54,6.68,6.68,0,0,0-4.16,1.69,18.09,18.09,0,0,0-4,4.73L236,76.94h-1.55Z" transform="translate(0 -11.89)"/><path class="cls-1" d="M60.35,29.3c-12.09,6.61-23.93,17-33.89,27.27.48-3.44,3.31-21.6,11.86-37.41C12.95,48.67,0,88.11,0,88.11,22.49,68.3,52.1,52.21,52.1,52.21Z" transform="translate(0 -11.89)"/><path class="cls-3" d="M51.73,88.11s31.53-40.45,86.41-72l-28-4.21c-17.54,10.73-44,41.75-44,41.75s-1.9-10.51-5.82-24.33A102.79,102.79,0,0,0,49,36.59Z" transform="translate(0 -11.89)"/></svg>