<svg xmlns="http://www.w3.org/2000/svg" viewBox="0 0 412.26 307.7"><defs><style>.cls-1{fill:#999;}.cls-2{fill:#b8b6b7;}.cls-3{fill:#d6d4d5;}.cls-4{fill:#20211d;}.cls-5{fill:#e0e0e0;}.cls-6{fill:#262823;}.cls-7{fill:#323c46;}.cls-8{fill:#06b08d;}.cls-12,.cls-15,.cls-9{fill:#fff;}.cls-10{fill:#ffdb7a;}.cls-11{fill:#f77b55;}.cls-12{font-size:12px;font-family:Montserrat-Bold, Montserrat;font-weight:700;}.cls-13{letter-spacing:-0.02em;}.cls-14{fill:#303231;opacity:0.2;}.cls-15{opacity:0.1;}.cls-16{fill:#f7622a;}.cls-17{fill:#fcd740;}.cls-18{fill:#363f48;}.cls-19{fill:#3f5469;}.cls-20{fill:#737373;}.cls-21,.cls-22,.cls-23{fill:none;stroke:#fff;stroke-miterlimit:10;stroke-width:2px;}.cls-22{stroke-dasharray:12.64 12.64;}.cls-23{stroke-dasharray:11.91 11.91;}.cls-24{fill:#121d2f;}.cls-25{fill:#3fc9ee;}.cls-26{fill:#1d3a61;}</style></defs><title>side</title><g id="OBJECTS"><path class="cls-1" d="M112.89,339.49c-24.55,0-44.46,24.24-44.46,54.14h88.92C157.35,363.73,137.45,339.49,112.89,339.49Z" transform="translate(-43.87 -96.15)"/><path class="cls-1" d="M383.12,321.22c-26.76,0-48.45,32.42-48.45,72.42h96.91C431.57,353.64,409.88,321.22,383.12,321.22Z" transform="translate(-43.87 -96.15)"/><path class="cls-1" d="M240.15,165.91c-70.28,0-127.26,102-127.26,227.73H367.4C367.4,267.86,310.43,165.91,240.15,165.91Z" transform="translate(-43.87 -96.15)"/><path class="cls-2" d="M269.89,387.12h-81a6.06,6.06,0,0,0-6.06,6.06H272Z" transform="translate(-43.87 -96.15)"/><polygon class="cls-3" points="251.49 297.04 202.98 297.04 175.46 219.69 223.96 219.69 251.49 297.04"/><polygon class="cls-2" points="244.9 297.04 196.39 297.04 168.87 219.69 217.37 219.69 244.9 297.04"/><path class="cls-2" d="M137.95,358.07h230a13.19,13.19,0,0,0,12.81-11.57c3.36-31.53,12.66-118.72,16-150.25a10.2,10.2,0,0,0-10.35-11.56h-230a13.21,13.21,0,0,0-12.82,11.58l-16,150.22A10.22,10.22,0,0,0,137.95,358.07Z" transform="translate(-43.87 -96.15)"/><path class="cls-4" d="M396.79,196.27,383,325.68H129.82l13.8-129.4a13.21,13.21,0,0,1,12.82-11.58h230A10.22,10.22,0,0,1,396.79,196.27Z" transform="translate(-43.87 -96.15)"/><path class="cls-5" d="M128.24,358.07h230a13.19,13.19,0,0,0,12.81-11.57c3.36-31.53,12.66-118.72,16-150.25a10.2,10.2,0,0,0-10.35-11.56h-230a13.21,13.21,0,0,0-12.82,11.58l-16,150.22A10.22,10.22,0,0,0,128.24,358.07Z" transform="translate(-43.87 -96.15)"/><path class="cls-6" d="M387.08,196.27l-13.8,129.4H120.11l13.8-129.4a13.21,13.21,0,0,1,12.82-11.58h230A10.22,10.22,0,0,1,387.08,196.27Z" transform="translate(-43.87 -96.15)"/><polygon class="cls-7" points="335.2 97.07 321.86 222.14 83.66 222.14 97 97.07 335.2 97.07"/><path class="cls-2" d="M140.87,193.22h46.06l4.43,13.27a14.47,14.47,0,0,0,13.73,9.89H376.6l-10.87,101.9H127.53Z" transform="translate(-43.87 -96.15)"/><polygon class="cls-8" points="104.47 193.43 306.44 193.43 304.38 212.78 102.41 212.78 104.47 193.43"/><polygon class="cls-9" points="233.64 127.04 227.41 185.5 307.06 185.5 313.3 127.04 233.64 127.04"/><polygon class="cls-10" points="233.64 127.04 313.3 127.04 311.24 146.38 231.58 146.38 233.64 127.04"/><polygon class="cls-11" points="111.33 127.04 105.09 185.5 216.45 185.5 222.68 127.04 111.33 127.04"/><text class="cls-12" transform="translate(125.68 159.6)"><tspan class="cls-13">W</tspan><tspan x="13.78" y="0">EB DESIGN</tspan></text><path class="cls-3" d="M293.2,387.12H231.88a6.06,6.06,0,0,0-6.06,6.06h69.54Z" transform="translate(-43.87 -96.15)"/><polygon class="cls-14" points="183.58 261.92 238.99 261.92 242.16 270.85 187.07 270.85 183.58 261.92"/><polygon class="cls-15" points="97 97.07 83.66 222.14 198.65 222.14 228.18 97.07 97 97.07"/><polygon class="cls-15" points="259.66 97.07 230.13 222.14 272.71 222.14 302.25 97.07 259.66 97.07"/><polygon class="cls-9" points="171.03 103.04 286.53 103.04 285.33 114.27 169.84 114.27 171.03 103.04"/><circle class="cls-16" cx="299.08" cy="108.65" r="3.17"/><circle class="cls-8" cx="311.92" cy="108.65" r="3.17"/><circle class="cls-17" cx="324.76" cy="108.65" r="3.17"/><polygon class="cls-18" points="297.6 297.43 302.71 297.43 276.19 219.3 271.08 219.3 297.6 297.43"/><polygon class="cls-18" points="275.74 297.43 280.85 297.43 254.33 219.3 249.22 219.3 275.74 297.43"/><polygon class="cls-18" points="298.74 285.99 297 280.87 270.12 280.87 271.85 285.99 298.74 285.99"/><polygon class="cls-18" points="293.06 269.28 291.33 264.16 264.45 264.16 266.18 269.28 293.06 269.28"/><polygon class="cls-18" points="287.39 252.57 285.66 247.46 258.77 247.46 260.51 252.57 287.39 252.57"/><polygon class="cls-18" points="281.72 235.86 279.99 230.75 253.1 230.75 254.84 235.86 281.72 235.86"/><polygon class="cls-19" points="227.81 297.43 222.7 297.43 249.22 219.3 254.33 219.3 227.81 297.43"/><polygon class="cls-19" points="249.67 297.43 244.56 297.43 271.08 219.3 276.19 219.3 249.67 297.43"/><polygon class="cls-19" points="226.68 285.99 228.41 280.87 255.29 280.87 253.56 285.99 226.68 285.99"/><polygon class="cls-19" points="232.35 269.28 234.08 264.16 260.97 264.16 259.23 269.28 232.35 269.28"/><polygon class="cls-19" points="238.02 252.57 239.76 247.46 266.64 247.46 264.9 252.57 238.02 252.57"/><polygon class="cls-19" points="243.69 235.86 245.43 230.75 272.31 230.75 270.57 235.86 243.69 235.86"/><path class="cls-20" d="M451,403.85H49a5.11,5.11,0,0,1-5.11-5.11h0A5.11,5.11,0,0,1,49,393.63H451a5.11,5.11,0,0,1,5.11,5.11h0A5.11,5.11,0,0,1,451,403.85Z" transform="translate(-43.87 -96.15)"/><polyline class="cls-21" points="302.03 74.17 308.03 74.17 307.39 80.14"/><line class="cls-22" x1="306.05" y1="92.71" x2="296" y2="186.99"/><polyline class="cls-21" points="295.32 193.28 294.69 199.24 288.69 199.24"/><line class="cls-23" x1="276.78" y1="199.24" x2="68.45" y2="199.24"/><polyline class="cls-21" points="62.49 199.24 56.49 199.24 57.13 193.28"/><line class="cls-22" x1="58.47" y1="180.71" x2="68.52" y2="86.43"/><polyline class="cls-21" points="69.19 80.14 69.83 74.17 75.83 74.17"/><line class="cls-23" x1="87.74" y1="74.17" x2="296.07" y2="74.17"/><path class="cls-24" d="M239.69,274.07l-.1.1a28,28,0,0,0-19.67,11,26.71,26.71,0,0,0-5.44,13.26l-8,70.82c-1.52,13.46-13.67,24.37-27.13,24.37h-51.2l10.78-95.24a26.7,26.7,0,0,1,5.4-13.21A27.68,27.68,0,0,1,166,274.07Z" transform="translate(-43.87 -96.15)"/><polygon class="cls-16" points="114.99 208.53 106.69 208.53 107.07 205.1 115.38 205.1 114.99 208.53"/><polygon class="cls-17" points="134.55 208.53 119.58 208.53 119.96 205.1 134.94 205.1 134.55 208.53"/><polygon class="cls-9" points="142.68 215.8 111.57 215.8 111.96 212.38 143.06 212.38 142.68 215.8"/><polygon class="cls-25" points="155.56 215.8 147.26 215.8 147.65 212.38 155.95 212.38 155.56 215.8"/><polygon class="cls-9" points="141.86 223.07 110.75 223.07 111.14 219.65 142.24 219.65 141.86 223.07"/><polygon class="cls-25" points="154.75 223.07 146.44 223.07 146.83 219.65 155.13 219.65 154.75 223.07"/><polygon class="cls-9" points="141.04 230.34 109.93 230.34 110.32 226.92 141.42 226.92 141.04 230.34"/><polygon class="cls-25" points="153.93 230.34 145.62 230.34 146.01 226.92 154.31 226.92 153.93 230.34"/><polygon class="cls-16" points="111.71 237.61 103.41 237.61 103.8 234.19 112.1 234.19 111.71 237.61"/><polygon class="cls-17" points="131.27 237.61 116.3 237.61 116.68 234.19 131.66 234.19 131.27 237.61"/><polygon class="cls-25" points="123.84 244.88 108.29 244.88 108.68 241.46 124.23 241.46 123.84 244.88"/><polygon class="cls-9" points="152.29 244.88 128.43 244.88 128.82 241.46 152.67 241.46 152.29 244.88"/><polygon class="cls-25" points="123.03 252.15 107.47 252.15 107.86 248.73 123.41 248.73 123.03 252.15"/><polygon class="cls-9" points="151.47 252.15 127.61 252.15 128 248.73 151.85 248.73 151.47 252.15"/><polygon class="cls-25" points="122.21 259.42 106.65 259.42 107.04 256 122.59 256 122.21 259.42"/><polygon class="cls-9" points="150.65 259.42 126.79 259.42 127.18 256 151.03 256 150.65 259.42"/><path class="cls-7" d="M239.69,274.07l-.1.1a28,28,0,0,0-19.67,11H144.31A27.68,27.68,0,0,1,166,274.07Z" transform="translate(-43.87 -96.15)"/><circle class="cls-16" cx="160.51" cy="182.73" r="1.58"/><circle class="cls-8" cx="166.93" cy="182.73" r="1.58"/><circle class="cls-17" cx="173.35" cy="182.73" r="1.58"/><path class="cls-26" d="M157.23,369.18H106c-1.53,13.5,8.18,24.45,21.68,24.45h51.12v-.07h0C165.39,393.56,155.71,382.64,157.23,369.18Z" transform="translate(-43.87 -96.15)"/><path class="cls-24" d="M132.59,173.14v-7.62l-4.62-.78a14.73,14.73,0,0,0-.88-2.13l2.72-3.82-5.39-5.39-3.82,2.72a14.73,14.73,0,0,0-2.13-.88l-.78-4.62h-7.62l-.78,4.62a14.73,14.73,0,0,0-2.13.88l-3.82-2.72-5.39,5.39,2.72,3.82a14.75,14.75,0,0,0-.88,2.13l-4.62.78v7.62l4.62.78a14.75,14.75,0,0,0,.88,2.13l-2.72,3.82,5.39,5.39,3.82-2.72a14.73,14.73,0,0,0,2.13.88l.78,4.62h7.62l.78-4.62a14.73,14.73,0,0,0,2.13-.88l3.82,2.72,5.39-5.39-2.72-3.82a14.74,14.74,0,0,0,.88-2.13Zm-18.73,3.33a7.14,7.14,0,1,1,7.14-7.14A7.14,7.14,0,0,1,113.86,176.47Z" transform="translate(-43.87 -96.15)"/><path class="cls-9" d="M145.09,198.56v-4.8l-2.91-.49a9.3,9.3,0,0,0-.56-1.34l1.71-2.41-3.4-3.4-2.41,1.71a9.28,9.28,0,0,0-1.34-.56l-.49-2.91h-4.8l-.49,2.91a9.29,9.29,0,0,0-1.34.56l-2.41-1.71-3.4,3.4,1.71,2.41a9.3,9.3,0,0,0-.56,1.34l-2.91.49v4.8l2.91.49a9.3,9.3,0,0,0,.56,1.34l-1.71,2.41,3.4,3.4L129,204.5a9.3,9.3,0,0,0,1.34.56l.49,2.91h4.8l.49-2.91a9.3,9.3,0,0,0,1.34-.56l2.41,1.71,3.4-3.4-1.71-2.41a9.3,9.3,0,0,0,.56-1.34Zm-11.8,2.1a4.5,4.5,0,1,1,4.5-4.5A4.5,4.5,0,0,1,133.28,200.66Z" transform="translate(-43.87 -96.15)"/><path class="cls-9" d="M241.77,129.81c-9.19,0-16.64,6.32-16.64,14.12h33.28C258.41,136.13,251,129.81,241.77,129.81Z" transform="translate(-43.87 -96.15)"/><path class="cls-9" d="M342.91,125c-10,0-18.13,8.46-18.13,18.89H361C361,133.5,352.92,125,342.91,125Z" transform="translate(-43.87 -96.15)"/><path class="cls-9" d="M290.1,96.15c-25.92,0-46.93,21.39-46.93,47.78H337C337,117.54,316,96.15,290.1,96.15Z" transform="translate(-43.87 -96.15)"/><rect class="cls-8" x="232.18" y="36.03" width="21.42" height="27.85"/><polygon class="cls-8" points="242.89 84.73 231.49 69.76 220.1 54.78 242.89 54.78 265.68 54.78 254.28 69.76 242.89 84.73"/><polygon class="cls-25" points="250.72 175.24 360.36 175.24 362.16 156.27 252.53 156.27 250.72 175.24"/><polygon class="cls-9" points="276.19 171.91 353.41 171.91 354.58 159.6 277.37 159.6 276.19 171.91"/><path class="cls-9" d="M307.66,266.9a5.66,5.66,0,1,1,4-9.66h0a5.66,5.66,0,0,1-4,9.66Zm0-10.29a4.64,4.64,0,1,0,3.28,1.36A4.62,4.62,0,0,0,307.66,256.61Z" transform="translate(-43.87 -96.15)"/><rect class="cls-9" x="312.27" y="264.27" width="1.02" height="4.2" transform="translate(-140.61 202.96) rotate(-44.99)"/></g></svg>